HIERARCHY
ROOT Hips
{
	OFFSET 0.000000 100.481300 0.000000
	CHANNELS 6 Xposition Yposition Zposition Xrotation Yrotation Zrotation
	JOINT Spine
	{
		OFFSET -0.279200 12.230698 -2.892100
		CHANNELS 3 Xrotation Yrotation Zrotation
		JOINT Spine1
		{
			OFFSET -0.325700 14.269203 -3.374200
			CHANNELS 3 Xrotation Yrotation Zrotation
			JOINT Spine2
			{
				OFFSET -0.372300 16.307602 -0.352600
				CHANNELS 3 Xrotation Yrotation Zrotation
				JOINT Neck
				{
					OFFSET -0.418800 17.814194 8.416900
					CHANNELS 3 Xrotation Yrotation Zrotation
					JOINT Head
					{
						OFFSET 0.000000 7.031097 3.806800
						CHANNELS 3 Xrotation Yrotation Zrotation
						JOINT HeadTop_End
						{
							OFFSET 0.000000 24.646606 12.978600
							CHANNELS 3 Xrotation Yrotation Zrotation
							End Site
							{
								OFFSET 0.000000 27.854965 0.000000
							}
						}
					}
				}
				JOINT LeftShoulder
				{
					OFFSET 16.952999 14.495407 -7.737500
					CHANNELS 3 Xrotation Yrotation Zrotation
					JOINT LeftArm
					{
						OFFSET 9.308998 -2.777710 0.208600
						CHANNELS 3 Xrotation Yrotation Zrotation
						JOINT LeftForeArm
						{
							OFFSET 29.972298 0.000000 0.000000
							CHANNELS 3 Xrotation Yrotation Zrotation
							JOINT LeftHand
							{
								OFFSET 26.026505 0.000000 0.000000
								CHANNELS 3 Xrotation Yrotation Zrotation
								JOINT LeftHandThumb1
								{
									OFFSET 12.240501 -7.147949 9.207150
									CHANNELS 3 Xrotation Yrotation Zrotation
									JOINT LeftHandThumb2
									{
										OFFSET 4.138618 -2.389435 2.389433
										CHANNELS 3 Xrotation Yrotation Zrotation
										JOINT LeftHandThumb3
										{
											OFFSET 2.726913 -1.574387 1.574386
											CHANNELS 3 Xrotation Yrotation Zrotation
											JOINT LeftHandThumb4
											{
												OFFSET 3.941010 -2.275345 2.275342
												CHANNELS 3 Xrotation Yrotation Zrotation
												End Site
												{
													OFFSET -0.005798 5.087799 0.009903
												}
											}
										}
									}
								}
								JOINT LeftHandIndex1
								{
									OFFSET 24.424698 -1.985611 5.953459
									CHANNELS 3 Xrotation Yrotation Zrotation
									JOINT LeftHandIndex2
									{
										OFFSET 6.426697 0.000000 0.000000
										CHANNELS 3 Xrotation Yrotation Zrotation
										JOINT LeftHandIndex3
										{
											OFFSET 5.337898 0.000000 0.000000
											CHANNELS 3 Xrotation Yrotation Zrotation
											JOINT LeftHandIndex4
											{
												OFFSET 4.409401 0.000000 0.000000
												CHANNELS 3 Xrotation Yrotation Zrotation
												End Site
												{
													OFFSET 0.000000 4.409363 0.014373
												}
											}
										}
									}
								}
								JOINT LeftHandMiddle1
								{
									OFFSET 23.810104 0.000000 0.000000
									CHANNELS 3 Xrotation Yrotation Zrotation
									JOINT LeftHandMiddle2
									{
										OFFSET 7.176498 0.000000 0.000000
										CHANNELS 3 Xrotation Yrotation Zrotation
										JOINT LeftHandMiddle3
										{
											OFFSET 6.774902 0.000000 0.000000
											CHANNELS 3 Xrotation Yrotation Zrotation
											JOINT LeftHandMiddle4
											{
												OFFSET 5.403328 0.000000 0.000000
												CHANNELS 3 Xrotation Yrotation Zrotation
												End Site
												{
													OFFSET -0.027702 5.403244 0.017414
												}
											}
										}
									}
								}
								JOINT LeftHandRing1
								{
									OFFSET 22.908401 -0.839279 -6.020567
									CHANNELS 3 Xrotation Yrotation Zrotation
									JOINT LeftHandRing2
									{
										OFFSET 6.337502 0.000000 0.000000
										CHANNELS 3 Xrotation Yrotation Zrotation
										JOINT LeftHandRing3
										{
											OFFSET 5.779297 0.000000 0.000000
											CHANNELS 3 Xrotation Yrotation Zrotation
											JOINT LeftHandRing4
											{
												OFFSET 4.965698 0.000000 0.000000
												CHANNELS 3 Xrotation Yrotation Zrotation
												End Site
												{
													OFFSET 0.000000 4.965668 0.016186
												}
											}
										}
									}
								}
								JOINT LeftHandPinky1
								{
									OFFSET 20.037003 -1.530319 -10.950146
									CHANNELS 3 Xrotation Yrotation Zrotation
									JOINT LeftHandPinky2
									{
										OFFSET 5.254700 0.000000 0.000000
										CHANNELS 3 Xrotation Yrotation Zrotation
										JOINT LeftHandPinky3
										{
											OFFSET 4.810204 0.000000 0.000000
											CHANNELS 3 Xrotation Yrotation Zrotation
											JOINT LeftHandPinky4
											{
												OFFSET 3.647202 0.000000 0.000000
												CHANNELS 3 Xrotation Yrotation Zrotation
												End Site
												{
													OFFSET 0.000000 3.647186 0.011889
												}
											}
										}
									}
								}
							}
						}
					}
				}
				JOINT RightShoulder
				{
					OFFSET -15.141001 14.495407 -7.737500
					CHANNELS 3 Xrotation Yrotation Zrotation
					JOINT RightArm
					{
						OFFSET -9.308998 -2.777710 0.208500
						CHANNELS 3 Xrotation Yrotation Zrotation
						JOINT RightForeArm
						{
							OFFSET -29.972300 0.000000 0.000000
							CHANNELS 3 Xrotation Yrotation Zrotation
							JOINT RightHand
							{
								OFFSET -26.026505 0.000000 0.000000
								CHANNELS 3 Xrotation Yrotation Zrotation
								JOINT RightHandThumb1
								{
									OFFSET -12.240601 -7.148026 9.207092
									CHANNELS 3 Xrotation Yrotation Zrotation
									JOINT RightHandThumb2
									{
										OFFSET -4.138618 -2.389435 2.389433
										CHANNELS 3 Xrotation Yrotation Zrotation
										JOINT RightHandThumb3
										{
											OFFSET -2.726974 -1.574417 1.574421
											CHANNELS 3 Xrotation Yrotation Zrotation
											JOINT RightHandThumb4
											{
												OFFSET -3.941010 -2.275345 2.275343
												CHANNELS 3 Xrotation Yrotation Zrotation
												End Site
												{
													OFFSET 0.005814 5.087799 0.009927
												}
											}
										}
									}
								}
								JOINT RightHandIndex1
								{
									OFFSET -24.424698 -1.985657 5.953444
									CHANNELS 3 Xrotation Yrotation Zrotation
									JOINT RightHandIndex2
									{
										OFFSET -6.426697 0.000000 0.000000
										CHANNELS 3 Xrotation Yrotation Zrotation
										JOINT RightHandIndex3
										{
											OFFSET -5.337898 0.000000 0.000000
											CHANNELS 3 Xrotation Yrotation Zrotation
											JOINT RightHandIndex4
											{
												OFFSET -4.409401 0.000000 0.000000
												CHANNELS 3 Xrotation Yrotation Zrotation
												End Site
												{
													OFFSET 0.000000 4.409363 0.014408
												}
											}
										}
									}
								}
								JOINT RightHandMiddle1
								{
									OFFSET -23.810097 0.000000 0.000000
									CHANNELS 3 Xrotation Yrotation Zrotation
									JOINT RightHandMiddle2
									{
										OFFSET -7.176498 0.000000 0.000000
										CHANNELS 3 Xrotation Yrotation Zrotation
										JOINT RightHandMiddle3
										{
											OFFSET -6.774902 0.000000 0.000000
											CHANNELS 3 Xrotation Yrotation Zrotation
											JOINT RightHandMiddle4
											{
												OFFSET -5.403328 0.000000 0.000000
												CHANNELS 3 Xrotation Yrotation Zrotation
												End Site
												{
													OFFSET 0.027702 5.403244 0.017457
												}
											}
										}
									}
								}
								JOINT RightHandRing1
								{
									OFFSET -22.908302 -0.839325 -6.020576
									CHANNELS 3 Xrotation Yrotation Zrotation
									JOINT RightHandRing2
									{
										OFFSET -6.337502 0.000000 0.000000
										CHANNELS 3 Xrotation Yrotation Zrotation
										JOINT RightHandRing3
										{
											OFFSET -5.779297 0.000000 0.000000
											CHANNELS 3 Xrotation Yrotation Zrotation
											JOINT RightHandRing4
											{
												OFFSET -4.965698 0.000000 0.000000
												CHANNELS 3 Xrotation Yrotation Zrotation
												End Site
												{
													OFFSET 0.000000 4.965668 0.016226
												}
											}
										}
									}
								}
								JOINT RightHandPinky1
								{
									OFFSET -20.037003 -1.530334 -10.950259
									CHANNELS 3 Xrotation Yrotation Zrotation
									JOINT RightHandPinky2
									{
										OFFSET -5.254700 0.000000 0.000000
										CHANNELS 3 Xrotation Yrotation Zrotation
										JOINT RightHandPinky3
										{
											OFFSET -4.810204 0.000000 0.000000
											CHANNELS 3 Xrotation Yrotation Zrotation
											JOINT RightHandPinky4
											{
												OFFSET -3.647202 0.000000 0.000000
												CHANNELS 3 Xrotation Yrotation Zrotation
												End Site
												{
													OFFSET 0.000000 3.647186 0.011917
												}
											}
										}
									}
								}
							}
						}
					}
				}
			}
		}
	}
	JOINT LeftUpLeg
	{
		OFFSET 15.427100 -6.655098 0.678600
		CHANNELS 3 Xrotation Yrotation Zrotation
		JOINT LeftLeg
		{
			OFFSET 4.081073 -39.591068 13.024000
			CHANNELS 3 Xrotation Yrotation Zrotation
			JOINT LeftFoot
			{
				OFFSET -4.081074 -37.707932 -15.979700
				CHANNELS 3 Xrotation Yrotation Zrotation
				JOINT LeftToeBase
				{
					OFFSET 5.346399 -15.068900 20.645000
					CHANNELS 3 Xrotation Yrotation Zrotation
					JOINT LeftToe_End
					{
						OFFSET 2.754700 0.931300 11.300900
						CHANNELS 3 Xrotation Yrotation Zrotation
						End Site
						{
							OFFSET 0.000000 11.669021 0.000000
						}
					}
				}
			}
		}
	}
	JOINT RightUpLeg
	{
		OFFSET -15.569500 -6.655098 0.678600
		CHANNELS 3 Xrotation Yrotation Zrotation
		JOINT RightLeg
		{
			OFFSET -4.081825 -39.591045 13.023800
			CHANNELS 3 Xrotation Yrotation Zrotation
			JOINT RightFoot
			{
				OFFSET 4.081824 -37.707954 -15.979600
				CHANNELS 3 Xrotation Yrotation Zrotation
				JOINT RightToeBase
				{
					OFFSET -5.346400 -15.068900 20.645000
					CHANNELS 3 Xrotation Yrotation Zrotation
					JOINT RightToe_End
					{
						OFFSET -2.754700 0.931300 11.300900
						CHANNELS 3 Xrotation Yrotation Zrotation
						End Site
						{
							OFFSET 0.000000 11.669021 0.000000
						}
					}
				}
			}
		}
	}
}
MOTION
Frames: 6
Frame Time: 0.033333
0.905174 78.905571 -4.332002 -11.457673 -31.853605 -5.090496 13.794072 -4.560833 8.103256 2.026183 -2.342316 0.827092 2.015420 -2.337418 0.867629 13.152130 13.393339 -6.449614 16.976317 9.989559 4.216573 0.000002 -0.000000 0.000001 0.252791 -11.739856 -12.807360 -52.262774 -16.401417 -40.618066 -0.000001 -60.457577 -0.000002 -132.812291 -1.600871 24.364036 1.567995 0.456398 2.719340 19.473192 -1.474905 7.636923 -4.536182 -9.613116 1.492980 0.000001 -0.000002 -0.000000 -1.882818 2.129424 -39.817011 2.947084 5.081731 -60.200529 0.514380 2.402409 -24.167359 0.000002 0.000000 0.000000 0.405912 5.507050 -52.453172 3.387142 5.308622 -65.057456 0.282019 1.797453 -17.832391 -0.000002 0.000004 0.000002 -0.074368 5.736798 -61.061420 4.422097 5.674480 -75.840371 0.582666 2.548969 -25.748000 0.000002 0.000000 -0.000002 2.216809 7.072459 -64.435431 4.422617 5.674617 -75.845767 1.294132 3.673945 -38.798463 -0.000001 -0.000001 -0.000000 0.505178 5.257293 11.859107 -34.604125 63.980609 57.403382 -0.000095 97.079746 0.000078 -51.294611 -27.739007 -28.919738 8.377134 -4.904124 11.022013 21.620199 -18.183891 -18.379226 -0.702882 -49.821206 -32.535142 0.000001 0.000000 0.000001 -1.101407 1.407144 15.159514 1.422355 -3.352177 45.974092 0.615856 -2.316433 29.773112 0.000000 0.000000 -0.000000 3.413046 -7.186245 51.650235 6.296815 -4.359597 110.634660 0.248720 -1.503053 18.790257 0.000000 0.000000 -0.000000 -3.349054 -2.600427 57.010571 5.440870 -4.590920 99.698174 1.689418 -3.590700 50.382245 -0.000000 0.000001 0.000002 -3.996454 -3.303934 64.593857 4.058854 -4.618654 82.610523 2.315530 -4.026785 59.787234 -0.000001 -0.000000 0.000001 -25.880065 31.503892 12.007187 72.135725 -6.383472 4.316529 12.474659 3.220681 17.202960 -48.015082 4.488172 -5.927041 -0.000000 -0.000001 0.000000 -27.641796 -3.761771 9.630784 52.872839 -6.530956 -11.004790 -15.804183 -0.029298 0.877583 -11.330460 0.000017 0.000004 0.000000 0.000002 0.000000 
0.889603 79.838989 0.379488 -11.288793 -33.572002 -4.724377 13.766874 -3.576787 7.887276 1.996154 -2.223976 0.755506 1.982059 -2.221237 0.797620 13.351656 13.553973 -7.087658 16.552612 10.264547 4.246180 0.000003 0.000000 -0.000002 0.239652 -11.580532 -12.879517 -52.567134 -16.219444 -40.579264 -0.000036 -59.641806 -0.000036 -133.298327 -0.931061 23.499073 1.567995 0.456398 2.719340 19.473189 -1.474900 7.636922 -4.536183 -9.613115 1.492981 -0.000000 -0.000003 -0.000001 -1.882818 2.129425 -39.817011 2.947087 5.081730 -60.200529 0.514384 2.402410 -24.167357 0.000003 0.000000 0.000001 0.405912 5.507049 -52.453165 3.387142 5.308625 -65.057456 0.282014 1.797453 -17.832388 -0.000004 -0.000000 0.000001 -0.074368 5.736801 -61.061420 4.422095 5.674482 -75.840378 0.582672 2.548970 -25.748003 0.000001 -0.000005 -0.000002 2.216809 7.072460 -64.435431 4.422622 5.674617 -75.845767 1.294131 3.673945 -38.798463 -0.000000 -0.000001 0.000000 0.512068 5.291480 11.767886 -35.397466 64.987597 57.879535 -0.000215 96.145062 0.000241 -50.875846 -27.444019 -28.844801 8.377133 -4.904124 11.022015 21.620201 -18.183891 -18.379225 -0.702881 -49.821206 -32.535142 -0.000002 0.000001 0.000001 -1.101407 1.407144 15.159514 1.422355 -3.352177 45.974092 0.615856 -2.316435 29.773112 0.000000 0.000000 0.000000 3.413046 -7.186244 51.650235 6.296815 -4.359597 110.634660 0.248721 -1.503053 18.790257 0.000001 -0.000000 -0.000000 -3.349054 -2.600426 57.010571 5.440870 -4.590920 99.698174 1.689418 -3.590700 50.382238 0.000000 -0.000001 0.000002 -3.996452 -3.303934 64.593857 4.058854 -4.618653 82.610523 2.315530 -4.026785 59.787234 -0.000000 0.000001 0.000003 -32.296949 29.142426 14.707127 71.270326 -5.326339 4.275533 7.056938 0.757361 20.415944 -27.487178 3.738846 -11.890886 0.000000 -0.000001 0.000000 -24.236477 -3.376810 7.215350 52.876370 -3.590931 -10.809957 -19.246037 -0.121200 1.424264 -11.407808 -0.000020 -0.000002 0.000001 -0.000001 -0.000001 
0.782657 80.784416 4.823459 -10.929736 -34.813734 -4.079696 13.544405 -2.829345 7.354108 2.081490 -2.121741 0.622578 2.064451 -2.122050 0.665095 13.064056 13.629535 -7.077633 16.304891 10.759729 3.983024 0.000001 0.000000 -0.000001 0.251233 -11.275064 -12.687992 -52.962465 -16.050472 -40.876302 0.000054 -59.212904 0.000065 -133.111562 -0.593876 23.016443 1.567995 0.456397 2.719340 19.473187 -1.474906 7.636923 -4.536183 -9.613118 1.492983 0.000001 0.000003 0.000000 -1.882819 2.129419 -39.817011 2.947083 5.081731 -60.200529 0.514381 2.402410 -24.167361 0.000001 -0.000000 0.000002 0.405912 5.507048 -52.453165 3.387140 5.308624 -65.057456 0.282021 1.797454 -17.832383 -0.000000 0.000001 -0.000003 -0.074368 5.736795 -61.061420 4.422096 5.674480 -75.840371 0.582667 2.548970 -25.748008 -0.000001 0.000003 0.000001 2.216808 7.072456 -64.435438 4.422624 5.674616 -75.845767 1.294129 3.673947 -38.798463 0.000001 -0.000000 0.000000 0.532137 5.087892 11.325158 -36.620090 65.471857 59.169806 0.000992 95.331266 -0.001019 -50.368670 -26.621408 -28.250252 8.377134 -4.904124 11.022015 21.620199 -18.183891 -18.379228 -0.702881 -49.821206 -32.535138 -0.000001 -0.000001 0.000002 -1.101407 1.407144 15.159518 1.422355 -3.352178 45.974092 0.615856 -2.316434 29.773116 -0.000000 -0.000000 -0.000000 3.413046 -7.186245 51.650232 6.296815 -4.359597 110.634660 0.248721 -1.503054 18.790257 -0.000000 0.000000 -0.000000 -3.349054 -2.600427 57.010575 5.440871 -4.590920 99.698168 1.689418 -3.590700 50.382242 -0.000000 -0.000000 0.000000 -3.996453 -3.303934 64.593857 4.058854 -4.618653 82.610523 2.315531 -4.026785 59.787228 0.000000 -0.000002 -0.000000 -35.645661 26.261855 15.677733 66.847102 -3.867776 3.909799 2.175898 -2.084928 20.290819 -14.154927 1.068903 -11.518962 -0.000000 0.000001 -0.000000 -20.913983 -2.803668 4.444603 52.214430 -1.172254 -10.449640 -22.225074 -0.212711 2.143750 -11.439934 -0.000007 -0.000000 -0.000001 -0.000002 -0.000000 
0.554099 81.783974 8.940130 -10.594101 -35.600626 -3.357209 13.067748 -2.275951 6.585688 2.145078 -2.033002 0.465183 2.125636 -2.036913 0.508238 13.064625 13.638029 -6.615055 15.918654 11.106961 3.731540 0.000003 0.000001 -0.000001 0.261140 -11.277266 -12.598395 -53.104492 -16.238934 -40.990721 0.000046 -59.156801 0.000047 -132.527841 -0.481074 23.270955 1.567995 0.456395 2.719340 19.473189 -1.474906 7.636923 -4.536185 -9.613111 1.492979 0.000000 0.000001 0.000000 -1.882818 2.129421 -39.817015 2.947085 5.081726 -60.200529 0.514382 2.402410 -24.167357 -0.000001 -0.000000 0.000000 0.405912 5.507046 -52.453169 3.387145 5.308622 -65.057456 0.282020 1.797456 -17.832386 0.000002 -0.000000 0.000003 -0.074368 5.736796 -61.061420 4.422096 5.674479 -75.840378 0.582670 2.548966 -25.748007 -0.000002 0.000003 0.000001 2.216809 7.072462 -64.435431 4.422620 5.674616 -75.845767 1.294133 3.673945 -38.798466 0.000000 -0.000001 -0.000000 0.545463 4.846069 10.942644 -36.836918 65.360655 59.712628 0.000532 95.251052 -0.000529 -50.497416 -25.722865 -28.268765 8.377134 -4.904124 11.022012 21.620199 -18.183891 -18.379228 -0.702880 -49.821206 -32.535138 0.000001 0.000001 0.000001 -1.101408 1.407145 15.159516 1.422356 -3.352177 45.974092 0.615857 -2.316434 29.773112 -0.000000 -0.000000 -0.000000 3.413045 -7.186244 51.650235 6.296815 -4.359597 110.634660 0.248720 -1.503054 18.790259 -0.000000 -0.000000 0.000000 -3.349055 -2.600427 57.010571 5.440871 -4.590919 99.698174 1.689418 -3.590701 50.382242 0.000000 -0.000000 0.000000 -3.996455 -3.303934 64.593857 4.058854 -4.618655 82.610523 2.315531 -4.026786 59.787234 0.000000 -0.000000 0.000001 -36.528904 23.354005 15.695783 59.036815 -2.213234 3.443419 -0.683264 -3.568810 16.834094 -10.065287 0.220896 -5.138677 -0.000000 -0.000000 -0.000000 -17.399304 -2.172751 1.637817 50.780158 0.485065 -10.039680 -24.698553 -0.371845 3.124152 -11.532568 0.000001 -0.000001 0.000001 -0.000001 -0.000000 
0.184866 82.488205 12.780372 -10.474456 -35.953009 -2.829685 12.282254 -2.059694 5.922140 2.114912 -1.992145 0.349507 2.094247 -2.000342 0.392861 13.892591 13.706789 -6.175513 15.253050 11.369720 3.846075 -0.000002 0.000001 -0.000001 0.249036 -11.808723 -12.859159 -53.057862 -16.668802 -40.369826 -0.000037 -58.359069 -0.000047 -132.027079 -0.186914 23.429497 1.567995 0.456395 2.719340 19.473192 -1.474904 7.636922 -4.536184 -9.613110 1.492980 0.000001 -0.000000 -0.000000 -1.882818 2.129424 -39.817015 2.947082 5.081733 -60.200529 0.514385 2.402409 -24.167361 -0.000002 0.000000 0.000001 0.405912 5.507049 -52.453165 3.387138 5.308622 -65.057456 0.282019 1.797453 -17.832386 -0.000001 0.000002 -0.000001 -0.074368 5.736796 -61.061420 4.422097 5.674483 -75.840378 0.582667 2.548970 -25.748003 0.000001 -0.000000 -0.000001 2.216809 7.072459 -64.435431 4.422617 5.674614 -75.845774 1.294130 3.673947 -38.798463 -0.000002 -0.000002 -0.000000 0.548118 4.786838 10.855171 -36.587650 65.291137 59.699521 0.002155 94.578695 -0.002087 -50.931805 -24.642213 -28.007737 8.377134 -4.904124 11.022015 21.620199 -18.183890 -18.379228 -0.702882 -49.821206 -32.535138 -0.000001 0.000003 0.000002 -1.101407 1.407144 15.159516 1.422355 -3.352177 45.974092 0.615856 -2.316434 29.773119 0.000000 0.000000 -0.000000 3.413046 -7.186245 51.650235 6.296815 -4.359597 110.634660 0.248721 -1.503054 18.790255 -0.000000 -0.000000 -0.000000 -3.349053 -2.600427 57.010571 5.440871 -4.590919 99.698174 1.689418 -3.590701 50.382245 -0.000000 -0.000000 -0.000003 -3.996453 -3.303935 64.593857 4.058854 -4.618654 82.610523 2.315531 -4.026786 59.787234 -0.000000 -0.000001 0.000003 -36.903085 20.519983 15.810457 49.318142 -0.866519 2.819279 1.084534 -3.501231 12.159470 -6.904769 0.001973 -0.492460 -0.000000 0.000001 -0.000000 -13.746242 -1.663287 -0.891960 49.258211 1.486640 -9.686570 -27.061215 -0.609511 4.272466 -11.697652 -0.000016 -0.000006 -0.000001 -0.000001 0.000001 
-0.203119 82.647102 16.461346 -10.398265 -36.103649 -2.456267 11.584667 -1.940922 5.484381 2.130140 -1.972481 0.289736 2.108806 -1.984424 0.332958 14.284286 13.776961 -5.888563 14.872385 11.673458 4.060913 -0.000001 0.000001 -0.000001 0.244652 -12.139381 -12.984124 -53.264708 -17.048367 -39.920898 0.000007 -57.844599 0.000005 -131.606858 0.046605 23.800368 1.567995 0.456398 2.719341 19.473189 -1.474905 7.636922 -4.536185 -9.613110 1.492979 0.000001 -0.000001 0.000001 -1.882819 2.129426 -39.817015 2.947085 5.081728 -60.200529 0.514384 2.402410 -24.167364 -0.000002 -0.000002 0.000002 0.405912 5.507049 -52.453169 3.387141 5.308623 -65.057463 0.282022 1.797452 -17.832388 0.000001 -0.000001 0.000001 -0.074368 5.736795 -61.061420 4.422098 5.674479 -75.840371 0.582662 2.548964 -25.748005 -0.000002 -0.000002 -0.000002 2.216809 7.072459 -64.435431 4.422620 5.674615 -75.845767 1.294135 3.673946 -38.798463 0.000000 0.000000 -0.000000 0.533933 5.055973 11.275598 -36.236657 65.037635 59.352910 0.001878 94.314401 -0.001801 -51.214613 -24.339511 -27.922640 8.377135 -4.904126 11.022011 21.620201 -18.183891 -18.379230 -0.702883 -49.821206 -32.535138 -0.000003 0.000002 0.000004 -1.101407 1.407144 15.159516 1.422354 -3.352177 45.974099 0.615857 -2.316434 29.773112 0.000000 0.000000 0.000000 3.413045 -7.186246 51.650239 6.296815 -4.359597 110.634660 0.248721 -1.503054 18.790255 -0.000000 0.000000 0.000000 -3.349056 -2.600428 57.010575 5.440870 -4.590920 99.698174 1.689418 -3.590701 50.382238 0.000001 0.000001 -0.000003 -3.996455 -3.303936 64.593857 4.058854 -4.618654 82.610523 2.315530 -4.026786 59.787234 -0.000000 -0.000001 -0.000000 -37.571074 17.205170 17.286889 42.409550 2.713350 1.665825 -1.796739 -2.907777 5.527884 -6.890761 -0.000004 0.000002 0.000000 0.000001 -0.000001 -10.378186 -1.410958 -3.200900 48.234816 2.149243 -9.430801 -29.603341 -0.889104 5.499071 -11.839743 -0.000016 -0.000003 -0.000000 0.000001 0.000000 
